<?xml version="1.0" encoding="UTF-8" standalone="no"?>
<!DOCTYPE svg PUBLIC "-//W3C//DTD SVG 1.1//EN" "http://www.w3.org/Graphics/SVG/1.1/DTD/svg11.dtd">
<svg width="100%" height="100%" viewBox="0 0 100 100" version="1.1" xmlns="http://www.w3.org/2000/svg" xmlns:xlink="http://www.w3.org/1999/xlink" xml:space="preserve" xmlns:serif="http://www.serif.com/" style="fill-rule:evenodd;clip-rule:evenodd;stroke-linejoin:round;stroke-miterlimit:2;">
    <g transform="matrix(1.47358e-16,-2.40654,2.40654,1.47358e-16,-70.311,166.31)">
        <path d="M50,29.219C49.496,29.219 49.129,29.586 49.129,30.09L49.129,67.824L37.715,56.41C37.356,56.05 36.859,56.05 36.504,56.41C36.149,56.769 36.149,57.269 36.504,57.628L49.383,70.507C49.567,70.691 49.762,70.765 49.996,70.765C50.258,70.765 50.438,70.699 50.61,70.527L63.489,57.648C63.844,57.292 63.844,56.789 63.489,56.429C63.133,56.074 62.633,56.07 62.278,56.429L50.864,67.843L50.864,30.093C50.864,29.589 50.496,29.222 49.993,29.222L50,29.219Z" style="fill-rule:nonzero;"/>
    </g>
</svg>
