<svg height='100px' width='100px'  fill="#000000" xmlns:dc="http://purl.org/dc/elements/1.1/" xmlns:cc="http://creativecommons.org/ns#" xmlns:rdf="http://www.w3.org/1999/02/22-rdf-syntax-ns#" xmlns:svg="http://www.w3.org/2000/svg" xmlns="http://www.w3.org/2000/svg" xmlns:sodipodi="http://sodipodi.sourceforge.net/DTD/sodipodi-0.dtd" xmlns:inkscape="http://www.inkscape.org/namespaces/inkscape" viewBox="0 0 16.933333 16.933334" version="1.1" enable-background="new" x="0px" y="0px"><svg:g><svg:path style="color:#000000;font-style:normal;font-variant:normal;font-weight:normal;font-stretch:normal;font-size:medium;line-height:normal;font-family:sans-serif;font-variant-ligatures:normal;font-variant-position:normal;font-variant-caps:normal;font-variant-numeric:normal;font-variant-alternates:normal;font-feature-settings:normal;text-indent:0;text-align:start;text-decoration:none;text-decoration-line:none;text-decoration-style:solid;text-decoration-color:#000000;letter-spacing:normal;word-spacing:normal;text-transform:none;writing-mode:lr-tb;direction:ltr;text-orientation:mixed;dominant-baseline:auto;baseline-shift:baseline;text-anchor:start;white-space:normal;shape-padding:0;clip-rule:nonzero;display:inline;overflow:visible;visibility:visible;opacity:1;isolation:auto;mix-blend-mode:normal;color-interpolation:sRGB;color-interpolation-filters:linearRGB;solid-color:#000000;solid-opacity:1;vector-effect:none;fill:#000000;fill-opacity:1;fill-rule:nonzero;stroke:none;stroke-width:0.51027495;stroke-linecap:round;stroke-linejoin:round;stroke-miterlimit:4;stroke-dasharray:none;stroke-dashoffset:0;stroke-opacity:1;paint-order:stroke fill markers;color-rendering:auto;image-rendering:auto;shape-rendering:auto;text-rendering:auto;enable-background:accumulate" d="m 5.8204252,1.3229946 a 0.25516299,0.25516299 0 1 0 0,0.51017 h 0.623497 v 2.269245 h -1.307284 c -0.612828,0 -1.114209,0.501376 -1.114209,1.114206 v 8.0112294 c 0,0.61283 0.501381,1.114208 1.114209,1.114206 h 0.109511 v 1.013471 a 0.25516299,0.25516299 0 0 0 0.255276,0.254895 h 1.789982 a 0.25516299,0.25516299 0 0 0 0.254894,-0.254895 v -1.013471 h 1.840731 v 1.013471 a 0.25516299,0.25516299 0 0 0 0.254895,0.254895 h 1.7899818 a 0.25516299,0.25516299 0 0 0 0.254895,-0.254895 v -1.013471 h 0.109894 c 0.612834,0 1.114206,-0.501376 1.114206,-1.114206 V 5.2166156 c 0,-0.61283 -0.501372,-1.114206 -1.114206,-1.114206 h -1.307287 v -2.269245 h 0.623499 a 0.25516299,0.25516299 0 1 0 0,-0.51017 h -0.878393 a 0.25516299,0.25516299 0 0 0 -3.7e-4,0 H 6.6988172 Z m 1.133668,0.51017 h 3.024767 v 2.268862 h -3.024767 z m -1.817455,2.779413 h 6.6600598 c 0.338961,0 0.603655,0.265073 0.603655,0.604038 v 8.0112294 c 0,0.338965 -0.264694,0.603655 -0.603655,0.603655 H 5.1366382 c -0.338964,0 -0.604039,-0.26469 -0.604039,-0.603655 V 5.2166156 c 0,-0.338965 0.265075,-0.604038 0.604039,-0.604038 z m 0.620062,9.7298564 h 1.279431 v 0.757813 h -1.279431 z m 4.140502,0 h 1.2794308 v 0.757813 H 9.8972022 Z"></svg:path></svg:g></svg>