<svg height='100px' width='100px'  fill="#000000" xmlns:dc="http://purl.org/dc/elements/1.1/" xmlns:cc="http://creativecommons.org/ns#" xmlns:rdf="http://www.w3.org/1999/02/22-rdf-syntax-ns#" xmlns:svg="http://www.w3.org/2000/svg" xmlns="http://www.w3.org/2000/svg" xmlns:sodipodi="http://sodipodi.sourceforge.net/DTD/sodipodi-0.dtd" xmlns:inkscape="http://www.inkscape.org/namespaces/inkscape" viewBox="0 0 16.933333 16.933334" version="1.1" x="0px" y="0px"><svg:g transform="translate(0,6.35)"><svg:path style="color:#000000;font-style:normal;font-variant:normal;font-weight:normal;font-stretch:normal;font-size:medium;line-height:normal;font-family:sans-serif;font-variant-ligatures:normal;font-variant-position:normal;font-variant-caps:normal;font-variant-numeric:normal;font-variant-alternates:normal;font-feature-settings:normal;text-indent:0;text-align:start;text-decoration:none;text-decoration-line:none;text-decoration-style:solid;text-decoration-color:#000000;letter-spacing:normal;word-spacing:normal;text-transform:none;writing-mode:lr-tb;direction:ltr;text-orientation:mixed;dominant-baseline:auto;baseline-shift:baseline;text-anchor:start;white-space:normal;shape-padding:0;clip-rule:nonzero;display:inline;overflow:visible;visibility:visible;opacity:1;isolation:auto;mix-blend-mode:normal;color-interpolation:sRGB;color-interpolation-filters:linearRGB;solid-color:#000000;solid-opacity:1;vector-effect:none;fill:#000000;fill-opacity:1;fill-rule:nonzero;stroke:none;stroke-width:0.5291667;stroke-linecap:round;stroke-linejoin:miter;stroke-miterlimit:4;stroke-dasharray:none;stroke-dashoffset:0;stroke-opacity:1;color-rendering:auto;image-rendering:auto;shape-rendering:auto;text-rendering:auto;enable-background:accumulate" d="m 13.67765,-5.5635875 a 0.26460984,0.26460984 0 0 0 -0.02687,10e-4 0.26460984,0.26460984 0 0 0 -0.207222,0.13436 l -4.9769577,8.59276 -4.9764394,-8.59276 a 0.26460984,0.26460984 0 0 0 -0.241845,-0.13436 0.26460984,0.26460984 0 0 0 -0.217043,0.39998 l 5.1299215,8.85423 -2.3884863,4.12482 -2.0262321,-1.16634 c -0.3344862,-0.19247 -0.7172113,-0.23833 -1.0629847,-0.15244 -0.3457734,0.0859 -0.6552803,0.30271 -0.8454257,0.63097 -0.1916642,0.33087 -0.2395379,0.73042 -0.1503786,1.09347 0.089159,0.36304 0.3410214,0.70628 0.7477574,0.82062 l 2.486152,0.69815 a 0.26460984,0.26460984 0 0 0 0.3979095,-0.0894 0.26460979,0.26460979 0 0 0 0.0031,-0.005 l 0.7751472,-1.3379 a 0.26460979,0.26460979 0 0 0 0.00103,-0.003 l 2.3678144,-4.08761 2.3652315,4.08244 a 0.26460979,0.26460979 0 0 0 0.0041,0.008 l 0.775663,1.3379 a 0.26460984,0.26460984 0 0 0 0.401011,0.0951 l 2.483567,-0.69867 c 0.406736,-0.11434 0.660667,-0.45758 0.749826,-0.82062 0.08916,-0.36305 0.03973,-0.7626 -0.151929,-1.09347 -0.190145,-0.32826 -0.498102,-0.54508 -0.843875,-0.63097 -0.345774,-0.0859 -0.72798,-0.04 -1.062469,0.15244 l -2.027267,1.1653 -2.388483,-4.12429 5.128368,-8.85372 a 0.26460984,0.26460984 0 0 0 -0.222691,-0.40099 z M 2.9785612,6.9834425 c 0.1672431,-0.008 0.3418099,0.0303 0.5038434,0.12351 l 2.0236497,1.16634 -0.5389853,0.93172 -2.3869332,-0.67231 c -0.2036683,-0.0573 -0.3235087,-0.21209 -0.3787881,-0.43718 -0.055282,-0.2251 -0.01901,-0.50338 0.095599,-0.70125 0.1161389,-0.20049 0.3043688,-0.33411 0.5177976,-0.38654 0.053358,-0.0131 0.1080664,-0.0215 0.1638167,-0.0243 z m 10.9765888,0 c 0.05575,0.003 0.110974,0.0112 0.164333,0.0243 0.213428,0.0524 0.401142,0.18605 0.517281,0.38654 0.114618,0.19787 0.150884,0.47615 0.0956,0.70125 -0.05528,0.22509 -0.175117,0.37992 -0.378788,0.43718 l -2.387967,0.67231 -0.539502,-0.93172 2.025201,-1.16634 c 0.162033,-0.0932 0.3366,-0.132 0.503843,-0.12351 z"></svg:path></svg:g></svg>