<?xml version="1.0" encoding="UTF-8"?>
<svg width="100pt" height="100pt" version="1.1" viewBox="0 0 100 100" xmlns="http://www.w3.org/2000/svg">
 <path d="m90.867 66.078l-0.35156 0.015625-0.24609 0.089844c-1.0234 0.37109-1.5234 1.4258-1.8555 2.1211-0.039062 0.082031-0.070312 0.15234-0.097656 0.19531-0.38281 0.65625-0.65625 0.86719-1.1094 1.2148-0.46875 0.35938-1.0547 0.80469-1.7617 1.7148-0.082031 0.10547-0.10547 0.12109-0.44922 0.23047-0.63281 0.19922-1.6875 0.53516-2.3477 2.1328-0.53906 1.3125-0.39844 2.3438-0.31641 2.9648 0.015625 0.10547 0.03125 0.19922 0.035157 0.28516-0.097657 0.24609-0.24219 0.39844-0.53906 0.6875-0.45703 0.44922-1.0781 1.0664-1.3516 2.2188-0.27344 1.1641-0.03125 1.8672 0.21484 2.4375 0.09375 0.21484 0.09375 0.21484 0.078125 0.33594-0.20312 1.5156 0.29297 2.4492 0.74219 2.9688 0.61328 0.70312 1.5352 1.0938 2.5938 1.0938 1.2383 0 2.5156-0.52344 3.3398-1.3633 0.64453-0.66016 1.0898-1.6172 1.5625-2.6328 0.51172-1.0938 1.0898-2.3359 1.9102-3.1562 1.4023-1.4023 1.2422-3.293 1.1484-4.4219-0.011718-0.12891-0.023437-0.28125-0.03125-0.40625 0.007813-0.007813 0.015625-0.011719 0.019532-0.019532 0.44922-0.40234 1.2031-1.0742 1.2578-2.6641 0.003906-0.039063 0.089844-4.1836-1.1602-5.4766-0.33984-0.36328-0.80078-0.56641-1.2852-0.56641zm-0.80078 6.4688c-0.19141 0.17188-0.38672 0.35156-0.56641 0.57812-0.55469 0.68359-0.48047 1.5234-0.41406 2.3359 0.078124 0.92578 0.10547 1.6641-0.28125 2.0547-1.1953 1.1953-1.9258 2.7539-2.5078 4.0078-0.34766 0.74219-0.70703 1.5117-0.99219 1.8047-0.25781 0.26172-0.76953 0.46094-1.1914 0.46094-0.21875 0-0.32031-0.050781-0.33594-0.066406-0.019532-0.023437-0.085938-0.19922-0.03125-0.59375 0.12891-0.95312-0.14062-1.5664-0.30078-1.9336-0.10547-0.24609-0.11328-0.26172-0.046874-0.55078 0.070312-0.29688 0.1875-0.42188 0.53906-0.77344 0.41406-0.40625 0.98047-0.96875 1.3047-1.9492 0.19531-0.58984 0.12109-1.1289 0.0625-1.5625-0.066407-0.47656-0.11719-0.85156 0.11719-1.4141 0.125-0.30469 0.125-0.30469 0.48047-0.41406 0.46875-0.14844 1.2461-0.39453 1.9141-1.25 0.46875-0.60547 0.8125-0.86719 1.2148-1.1719 0.39062-0.29688 0.8125-0.62109 1.2656-1.1836 0.027344 0.39844 0.039063 0.78516 0.03125 1.0977-0.015625 0.30469-0.015625 0.30469-0.26172 0.52344zm-8.7148-6.9922l-0.085937-0.48047c-0.32031-1.8203-0.92578-3.0312-1.3672-3.918-0.64063-1.2812-0.73828-1.4805 0.089843-2.6836 0.37891-0.55078 3.4805-4.9609 4.3555-6.0586 1.0312-1.3008 2.082-2.168 3.0977-3.0078 1.6602-1.375 3.3789-2.793 4.5938-5.7734 0.3125-0.76562 0.64062-1.5 0.94531-2.1875 0.93359-2.0977 1.6055-3.6133 1.4727-4.8555-0.17969-1.6641-1.4297-2.7383-3.1875-2.7383-0.90625 0-1.9297 0.27344-3.125 0.83203-1.4688 0.6875-2.3789 1.0586-3.2656 1.1875-0.058594 0.007812-0.10547 0.015625-0.19922 0.011718-0.10156-0.14844-0.25-0.49609-0.36328-0.75781-0.38672-0.89844-0.91406-2.125-2.1992-3.2383-0.44141-0.38281-0.99219-0.67188-1.5273-0.94922-0.54688-0.28516-1.457-0.76172-1.5273-1.0938-0.49609-2.4141-1.5117-3.4297-2.2539-4.1719-0.51172-0.51172-0.72266-0.72266-0.81641-1.3398-0.33984-2.1953-1.0156-2.9883-1.9336-3.8672-0.17188-0.16406-0.35547-0.33594-0.54297-0.55469-1.9336-2.2188-1.9258-3.7734-1.7266-5.4375 0.25781-2.125-0.054687-3.2461-1.2773-4.6172-1.5547-1.7422-3.4492-1.8945-6.5352-0.26562-0.38281 0.19922-0.67188 0.3125-1.1055 0.3125-0.46094 0-1.0547-0.12109-1.8164-0.375-1.4648-0.48828-2.75-0.72266-3.9297-0.72266-2.5742 0-3.957 1.1367-4.8711 1.8906-0.14844 0.12109-0.33984 0.27734-0.46875 0.36719-0.023438-0.015625-0.046875-0.03125-0.074219-0.054688-1.7227-1.3125-2.9141-2.1641-4.9414-2.9297-1.0664-0.40234-1.1367-0.78906-1.3086-1.7227-0.15234-0.83594-0.36328-1.9805-1.4805-2.8438-0.66406-0.51172-1.4102-0.76172-2.2852-0.76172-0.39062 0-0.76562 0.046875-1.125 0.09375-0.73047 0.09375-1.4219 0.13672-2.1094-0.058594-1.7539-0.49609-3.3164-0.50781-5.4531 0-0.99219 0.23438-1.9219 0.34375-2.918 0.34375-0.68359 0-1.3125-0.050781-1.918-0.10156-0.57812-0.046875-1.1289-0.09375-1.6914-0.09375-2.1016 0-3.7656 0.70312-5.5625 2.3555-1.4141 1.2969-1.8438 2.6562-2.1875 3.7461-0.38672 1.2266-0.60156 1.8984-2.1172 2.5195-2.5273 1.0312-4.3242 1.9961-6.2148 5.8164-0.28516 0.57422-0.66016 1.0391-1.0625 1.5312-1.1172 1.3828-2.3867 2.9453-1.9102 6.8008 0.26172 2.1289-0.30078 3.0664-0.89453 4.0625-0.67578 1.1328-1.5156 2.5391-0.53516 4.9062 0.51953 1.2539 1.3945 2.0938 2.168 2.8398 0.69922 0.67188 1.3047 1.2539 1.5586 2.0352 0.023438 0.082031 0.039062 0.1875 0.0625 0.30078 0.16406 0.875 0.51172 2.6914 2.5195 3.5898 0.64844 0.28906 0.91406 0.62109 1.2773 1.082 0.30469 0.38281 0.64453 0.81641 1.1914 1.1992 1.6133 1.1367 3.2148 1.6875 4.8867 1.6875 2.2422 0 4.1523-1.0156 5.8398-1.9102 1.8008-0.95703 3.4414-1.7812 4.9727-1.2305 0.78906 0.28516 1.0547 0.60938 1.457 1.1016 0.58594 0.71875 1.3867 1.7031 3.5156 2.1719 2.3789 0.51953 2.5352 1.5312 2.9102 3.9688 0.25 1.6211 0.55859 3.6367 1.8516 5.6797 1.7109 2.7031 2.7734 4.5625 3.1523 5.5195 1.1328 2.8555 0.21875 4.8555-0.75 6.9805-0.89453 1.9609-1.9062 4.1797-0.58203 6.6328 0.76562 1.418 1.4219 2.4766 1.9492 3.3281 0.53516 0.86328 0.92578 1.4844 1.0781 1.9336 0.21094 0.60938 0.17188 1.1953 0.12891 1.8711-0.074219 1.1367-0.16406 2.5508 0.97656 4.0859 1.4297 1.9219 1.8398 3.6055 2.2031 5.0938 0.38672 1.5898 0.78516 3.2344 2.418 4.3125 0.64453 0.42969 1.3633 0.64453 2.1289 0.64453 0.76953 0 1.4531-0.21094 2.1133-0.41016 0.88672-0.26953 1.6875-0.47656 2.4766-0.18359 2.1562 0.80469 4.543-0.089844 7.1992-2.7891 0.98047-0.99609 1.8633-2.1445 2.8047-3.3594 1.3633-1.7656 2.9102-3.7656 5.0898-5.7266 1.4141-1.2773 1.4453-2.8555 1.4727-4.125 0.035156-1.7305 0.066406-3.3633 3.4023-5.3711 5.1484-3.1211 4.4219-7.1406 3.8867-10.07zm-5.4609 7.4961c-4.7539 2.8633-4.8125 5.8828-4.8516 7.8828-0.023437 1.1484-0.066406 1.582-0.48047 1.9531-2.375 2.1406-4.0117 4.2539-5.4531 6.1172-0.92188 1.1914-1.7188 2.2227-2.5703 3.0898-1.7695 1.8008-2.8711 2.1797-3.4844 2.1797-0.17969 0-0.35156-0.03125-0.52344-0.09375-0.61328-0.23047-1.25-0.34375-1.8945-0.34375-0.97266 0-1.8242 0.26172-2.5078 0.46875-0.47266 0.14453-0.91406 0.27734-1.2383 0.27734-0.15234 0-0.28906-0.023437-0.47266-0.14453-0.62109-0.41016-0.8125-1.1094-1.1562-2.5195-0.38672-1.5898-0.91797-3.7656-2.7109-6.1797-0.46484-0.62109-0.45703-1.0938-0.39062-2.0977 0.054688-0.82812 0.12109-1.8594-0.28516-3.0391-0.26172-0.76562-0.72656-1.5117-1.3672-2.543-0.50781-0.81641-1.1367-1.832-1.8594-3.168-0.58984-1.0898-0.17578-2.1094 0.67188-3.9648 1.0156-2.2305 2.4102-5.2891 0.80859-9.3281-0.60547-1.5273-2.2344-4.1641-3.4258-6.0469-0.9375-1.4844-1.1758-3.0156-1.4023-4.5-0.39453-2.5703-0.84375-5.4844-5.2344-6.4453-1.1055-0.24219-1.3633-0.55859-1.8281-1.1328-0.50391-0.61719-1.1914-1.4648-2.7656-2.0312-0.67969-0.24609-1.3867-0.36719-2.0977-0.36719-1.957 0-3.6523 0.90234-5.2969 1.7734-1.5117 0.80469-2.9375 1.5625-4.4297 1.5625-1.0352 0-2.0703-0.375-3.1602-1.1406-0.1875-0.13281-0.34766-0.33203-0.56641-0.60938-0.45703-0.57812-1.0859-1.3672-2.4023-1.957-0.51953-0.23438-0.64453-0.60938-0.79297-1.4102-0.050781-0.26172-0.097656-0.49219-0.15625-0.66797-0.48828-1.4961-1.4688-2.4414-2.332-3.2734-0.64062-0.61719-1.1953-1.1484-1.4727-1.8203-0.40234-0.97656-0.23047-1.2656 0.33984-2.2227 0.71094-1.1875 1.6797-2.8203 1.293-5.9648-0.32031-2.5898 0.3125-3.3672 1.2656-4.543 0.46094-0.57031 0.98438-1.2148 1.418-2.0898 1.4609-2.9531 2.6016-3.5273 4.6602-4.3711 2.8203-1.1523 3.3867-2.9492 3.8438-4.3945 0.29688-0.94141 0.53125-1.6875 1.3555-2.4414 1.5742-1.4453 2.6094-1.5664 3.5352-1.5664 0.46484 0 0.94141 0.039062 1.4492 0.082031 0.63672 0.050781 1.3555 0.10938 2.1602 0.10938 1.2188 0 2.3984-0.13672 3.6055-0.42188 1.6211-0.38281 2.6914-0.38672 3.9531-0.03125 1.1367 0.32031 2.3984 0.26172 3.3008 0.14453 0.26562-0.03125 0.51172-0.070312 0.75-0.070312 0.23828 0 0.33203 0.042969 0.45312 0.13672 0.17969 0.14062 0.23828 0.33984 0.36328 1.0078 0.20313 1.1172 0.54688 2.9844 3.1992 3.9883 1.5898 0.60156 2.5391 1.2578 4.1836 2.5078 0.63281 0.48438 1.2539 0.71875 1.9023 0.71875 1.0312 0 1.7422-0.58594 2.3672-1.1016 0.75391-0.62109 1.4648-1.207 2.9648-1.207 0.83984 0 1.8438 0.19141 2.9805 0.57031 1.0859 0.35938 1.9648 0.52734 2.7656 0.52734 1.1094 0 1.8867-0.33203 2.5039-0.65625 1.2031-0.63672 1.8555-0.76953 2.1914-0.76953 0.21094 0 0.39453 0.027344 0.70703 0.37891 0.51953 0.57813 0.71094 0.79688 0.53516 2.2578-0.27344 2.2656-0.16797 4.7773 2.4414 7.7695 0.25391 0.29297 0.49609 0.52734 0.72656 0.74609 0.57422 0.55078 0.83594 0.80078 1.0469 2.1641 0.24609 1.5898 1.0312 2.3711 1.6602 3.0039 0.60156 0.60156 1.1172 1.1172 1.4336 2.6523 0.35547 1.7305 1.9297 2.5508 3.0781 3.1484 0.36328 0.1875 0.77344 0.40234 0.94922 0.55469 0.76562 0.66406 1.0938 1.4219 1.4062 2.1562 0.44141 1.0234 1.1094 2.5742 3.1328 2.5742 0.1875 0 0.39062-0.015625 0.60938-0.046875 1.3789-0.19531 2.6797-0.76953 4.1094-1.4375 1.7227-0.80469 2.1445-0.55078 2.0586-0.49219 0.03125 0.48047-0.69922 2.1211-1.2305 3.3203-0.31641 0.71094-0.65234 1.4727-0.98047 2.2695-0.93359 2.2852-2.168 3.3047-3.7305 4.5977-1.082 0.89453-2.3086 1.9102-3.5352 3.4531-0.96875 1.2148-4.1953 5.8164-4.4805 6.2305-1.8242 2.6562-1.0508 4.2148-0.29688 5.7188 0.39844 0.80078 0.85156 1.707 1.0977 3.1016l0.089843 0.49219c0.52344 2.8555 0.89844 4.9141-2.5039 6.9648z"/>
</svg>
