<?xml version="1.0" encoding="UTF-8"?>
<svg width="100pt" height="100pt" version="1.1" viewBox="0 0 100 100" xmlns="http://www.w3.org/2000/svg">
 <g>
  <path d="m70.707 48.492c0.39062 0.39062 0.39062 1.0273 0 1.4141l-19.801 19.801c-0.38672 0.39062-1.0234 0.39062-1.4141 0-0.39063-0.39062-0.39063-1.0234 0-1.4141l19.801-19.801c0.39062-0.39063 1.0234-0.39063 1.4141 0z"/>
  <path d="m29.492 48.492c0.39062-0.39063 1.0273-0.39063 1.4141 0l19.801 19.801c0.39062 0.39062 0.39062 1.0234 0 1.4141s-1.0234 0.39062-1.4141 0l-19.801-19.801c-0.39063-0.38672-0.39063-1.0234 0-1.4141z"/>
  <path d="m51 69c0 0.55078-0.44922 1-1 1s-1-0.44922-1-1v-38c0-0.55078 0.44922-1 1-1s1 0.44922 1 1z"/>
 </g>
</svg>
