<?xml version="1.0" encoding="UTF-8"?>
<svg width="100pt" height="100pt" version="1.1" viewBox="0 0 100 100" xmlns="http://www.w3.org/2000/svg">
 <path d="m51.703 4.7031c-0.84766-0.007813-1.5508 0.66406-1.5781 1.5117-0.46094 14.059-2.7148 27.582-8.3203 40.227-5.2422-3.7188-9.75-10.824-13.965-18.949-0.26172-0.51172-0.78125-0.83984-1.3555-0.85156s-1.1094 0.28906-1.3945 0.78906c0 0-2.707 4.8359-5.3398 11.297-2.6289 6.4609-5.2461 14.543-4.9375 21.457 0.86328 19.316 15.773 35.125 35.195 35.125 19.418 0 34.957-15.781 35.195-35.176 0.39453-32.336-32.625-55.168-32.625-55.168l0.003906 0.003906c-0.25781-0.17969-0.5625-0.27734-0.87891-0.28125zm1.418 4.6367c7.2422 5.8086 29.27 25.551 28.961 50.773-0.21875 17.754-14.34 32.09-32.07 32.09s-31.277-14.344-32.07-32.141c-0.26562-5.9883 2.1562-13.867 4.7109-20.141 1.4258-3.5 2.8164-6.3867 3.8164-8.3594 4.2891 7.9453 8.9844 14.938 15.242 18.523h-0.007813c0.37891 0.21875 0.83203 0.26562 1.2461 0.13672 0.41797-0.13281 0.76172-0.43359 0.94531-0.82812 5.9492-12.684 8.5078-26.176 9.2227-40.055z"/>
</svg>
