<?xml version="1.0" encoding="UTF-8"?>
<svg width="100pt" height="100pt" version="1.1" viewBox="0 0 100 100" xmlns="http://www.w3.org/2000/svg">
 <path d="m15.352 4.6875c-0.79687 0.082031-1.4062 0.75781-1.4062 1.5586v78.961c-0.007812 0.14453-0.023437 0.28516-0.023437 0.42969 0 5.332 4.3359 9.6758 9.6641 9.6758h60.902c0.85156-0.019531 1.5273-0.71094 1.5273-1.5625 0-0.84766-0.67578-1.543-1.5273-1.5625h-60.902c-3.6055 0-6.4492-2.8281-6.5234-6.4102 0.003906-0.046875 0.007812-0.09375 0.007812-0.14062v-0.21484c0.11328-3.5469 2.9414-6.3242 6.5195-6.3242h60.898c0.45312 0 0.88281-0.19922 1.1797-0.53906 0.29688-0.34375 0.42969-0.79688 0.36719-1.2461 0.027344-0.11719 0.042969-0.23828 0.042969-0.36328v-70.703c0-0.41406-0.16797-0.8125-0.46094-1.1016-0.29688-0.29297-0.69531-0.45703-1.1094-0.45703h-69.008-0.14844zm1.7188 3.1289h65.887v68.156h-59.367c-2.5117 0-4.7969 0.97266-6.5195 2.5469zm32.945 13.297c-11.23 0-20.371 9.1406-20.371 20.371s9.1406 20.371 20.371 20.371 20.367-9.1406 20.367-20.371-9.1367-20.371-20.367-20.371zm0 3.1289c1.4844 0 2.918 0.20312 4.2891 0.55469v15.129h-8.5938v-15.129c1.375-0.35156 2.8125-0.55859 4.3047-0.55859zm7.4141 1.6836c5.3672 2.5586 9.1953 7.793 9.7461 14h-9.7461zm-14.844 0.007813v13.996h-9.7383c0.55469-6.2031 4.375-11.438 9.7383-13.996zm-9.7383 17.121h9.7383v13.984c-5.3594-2.5586-9.1836-7.7852-9.7383-13.984zm12.863 0h8.5938v15.117c-1.375 0.35156-2.8047 0.55859-4.2891 0.55859-1.4883 0-2.9258-0.20703-4.3047-0.5625zm11.719 0h9.7461c-0.55859 6.2031-4.3828 11.434-9.7461 13.988z"/>
</svg>
