<svg height="100pt" viewBox="0 0 100 100" width="100pt" xmlns="http://www.w3.org/2000/svg"><path d="m90.867 66.078-.35156.015625-.24609.089844c-1.0234.37109-1.5234 1.4258-1.8555 2.1211-.039062.082031-.070312.15234-.097656.19531-.38281.65625-.65625.86719-1.1094 1.2148-.46875.35938-1.0547.80469-1.7617 1.7148-.082031.10547-.10547.12109-.44922.23047-.63281.19922-1.6875.53516-2.3477 2.1328-.53906 1.3125-.39844 2.3438-.31641 2.9648.015625.10547.03125.19922.035157.28516-.097657.24609-.24219.39844-.53906.6875-.45703.44922-1.0781 1.0664-1.3516 2.2188-.27344 1.1641-.03125 1.8672.21484 2.4375.09375.21484.09375.21484.078125.33594-.20312 1.5156.29297 2.4492.74219 2.9688.61328.70312 1.5352 1.0938 2.5938 1.0938 1.2383 0 2.5156-.52344 3.3398-1.3633.64453-.66016 1.0898-1.6172 1.5625-2.6328.51172-1.0938 1.0898-2.3359 1.9102-3.1562 1.4023-1.4023 1.2422-3.293 1.1484-4.4219-.011718-.12891-.023437-.28125-.03125-.40625.007813-.007813.015625-.011719.019532-.019532.44922-.40234 1.2031-1.0742 1.2578-2.6641.003906-.039063.089844-4.1836-1.1602-5.4766-.33984-.36328-.80078-.56641-1.2852-.56641zm-.80078 6.4688c-.19141.17188-.38672.35156-.56641.57812-.55469.68359-.48047 1.5234-.41406 2.3359.078124.92578.10547 1.6641-.28125 2.0547-1.1953 1.1953-1.9258 2.7539-2.5078 4.0078-.34766.74219-.70703 1.5117-.99219 1.8047-.25781.26172-.76953.46094-1.1914.46094-.21875 0-.32031-.050781-.33594-.066406-.019532-.023437-.085938-.19922-.03125-.59375.12891-.95312-.14062-1.5664-.30078-1.9336-.10547-.24609-.11328-.26172-.046874-.55078.070312-.29688.1875-.42188.53906-.77344.41406-.40625.98047-.96875 1.3047-1.9492.19531-.58984.12109-1.1289.0625-1.5625-.066407-.47656-.11719-.85156.11719-1.4141.125-.30469.125-.30469.48047-.41406.46875-.14844 1.2461-.39453 1.9141-1.25.46875-.60547.8125-.86719 1.2148-1.1719.39062-.29688.8125-.62109 1.2656-1.1836.027344.39844.039063.78516.03125 1.0977-.015625.30469-.015625.30469-.26172.52344zm-8.7148-6.9922-.085937-.48047c-.32031-1.8203-.92578-3.0312-1.3672-3.918-.64063-1.2812-.73828-1.4805.089843-2.6836.37891-.55078 3.4805-4.9609 4.3555-6.0586 1.0312-1.3008 2.082-2.168 3.0977-3.0078 1.6602-1.375 3.3789-2.793 4.5938-5.7734.3125-.76562.64062-1.5.94531-2.1875.93359-2.0977 1.6055-3.6133 1.4727-4.8555-.17969-1.6641-1.4297-2.7383-3.1875-2.7383-.90625 0-1.9297.27344-3.125.83203-1.4688.6875-2.3789 1.0586-3.2656 1.1875-.058594.007812-.10547.015625-.19922.011718-.10156-.14844-.25-.49609-.36328-.75781-.38672-.89844-.91406-2.125-2.1992-3.2383-.44141-.38281-.99219-.67188-1.5273-.94922-.54688-.28516-1.457-.76172-1.5273-1.0938-.49609-2.4141-1.5117-3.4297-2.2539-4.1719-.51172-.51172-.72266-.72266-.81641-1.3398-.33984-2.1953-1.0156-2.9883-1.9336-3.8672-.17188-.16406-.35547-.33594-.54297-.55469-1.9336-2.2188-1.9258-3.7734-1.7266-5.4375.25781-2.125-.054687-3.2461-1.2773-4.6172-1.5547-1.7422-3.4492-1.8945-6.5352-.26562-.38281.19922-.67188.3125-1.1055.3125-.46094 0-1.0547-.12109-1.8164-.375-1.4648-.48828-2.75-.72266-3.9297-.72266-2.5742 0-3.957 1.1367-4.8711 1.8906-.14844.12109-.33984.27734-.46875.36719-.023438-.015625-.046875-.03125-.074219-.054688-1.7227-1.3125-2.9141-2.1641-4.9414-2.9297-1.0664-.40234-1.1367-.78906-1.3086-1.7227-.15234-.83594-.36328-1.9805-1.4805-2.8438-.66406-.51172-1.4102-.76172-2.2852-.76172-.39062 0-.76562.046875-1.125.09375-.73047.09375-1.4219.13672-2.1094-.058594-1.7539-.49609-3.3164-.50781-5.4531 0-.99219.23438-1.9219.34375-2.918.34375-.68359 0-1.3125-.050781-1.918-.10156-.57812-.046875-1.1289-.09375-1.6914-.09375-2.1016 0-3.7656.70312-5.5625 2.3555-1.4141 1.2969-1.8438 2.6562-2.1875 3.7461-.38672 1.2266-.60156 1.8984-2.1172 2.5195-2.5273 1.0312-4.3242 1.9961-6.2148 5.8164-.28516.57422-.66016 1.0391-1.0625 1.5312-1.1172 1.3828-2.3867 2.9453-1.9102 6.8008.26172 2.1289-.30078 3.0664-.89453 4.0625-.67578 1.1328-1.5156 2.5391-.53516 4.9062.51953 1.2539 1.3945 2.0938 2.168 2.8398.69922.67188 1.3047 1.2539 1.5586 2.0352.023438.082031.039062.1875.0625.30078.16406.875.51172 2.6914 2.5195 3.5898.64844.28906.91406.62109 1.2773 1.082.30469.38281.64453.81641 1.1914 1.1992 1.6133 1.1367 3.2148 1.6875 4.8867 1.6875 2.2422 0 4.1523-1.0156 5.8398-1.9102 1.8008-.95703 3.4414-1.7812 4.9727-1.2305.78906.28516 1.0547.60938 1.457 1.1016.58594.71875 1.3867 1.7031 3.5156 2.1719 2.3789.51953 2.5352 1.5312 2.9102 3.9688.25 1.6211.55859 3.6367 1.8516 5.6797 1.7109 2.7031 2.7734 4.5625 3.1523 5.5195 1.1328 2.8555.21875 4.8555-.75 6.9805-.89453 1.9609-1.9062 4.1797-.58203 6.6328.76562 1.418 1.4219 2.4766 1.9492 3.3281.53516.86328.92578 1.4844 1.0781 1.9336.21094.60938.17188 1.1953.12891 1.8711-.074219 1.1367-.16406 2.5508.97656 4.0859 1.4297 1.9219 1.8398 3.6055 2.2031 5.0938.38672 1.5898.78516 3.2344 2.418 4.3125.64453.42969 1.3633.64453 2.1289.64453.76953 0 1.4531-.21094 2.1133-.41016.88672-.26953 1.6875-.47656 2.4766-.18359 2.1562.80469 4.543-.089844 7.1992-2.7891.98047-.99609 1.8633-2.1445 2.8047-3.3594 1.3633-1.7656 2.9102-3.7656 5.0898-5.7266 1.4141-1.2773 1.4453-2.8555 1.4727-4.125.035156-1.7305.066406-3.3633 3.4023-5.3711 5.1484-3.1211 4.4219-7.1406 3.8867-10.07zm-5.4609 7.4961c-4.7539 2.8633-4.8125 5.8828-4.8516 7.8828-.023437 1.1484-.066406 1.582-.48047 1.9531-2.375 2.1406-4.0117 4.2539-5.4531 6.1172-.92188 1.1914-1.7188 2.2227-2.5703 3.0898-1.7695 1.8008-2.8711 2.1797-3.4844 2.1797-.17969 0-.35156-.03125-.52344-.09375-.61328-.23047-1.25-.34375-1.8945-.34375-.97266 0-1.8242.26172-2.5078.46875-.47266.14453-.91406.27734-1.2383.27734-.15234 0-.28906-.023437-.47266-.14453-.62109-.41016-.8125-1.1094-1.1562-2.5195-.38672-1.5898-.91797-3.7656-2.7109-6.1797-.46484-.62109-.45703-1.0938-.39062-2.0977.054688-.82812.12109-1.8594-.28516-3.0391-.26172-.76562-.72656-1.5117-1.3672-2.543-.50781-.81641-1.1367-1.832-1.8594-3.168-.58984-1.0898-.17578-2.1094.67188-3.9648 1.0156-2.2305 2.4102-5.2891.80859-9.3281-.60547-1.5273-2.2344-4.1641-3.4258-6.0469-.9375-1.4844-1.1758-3.0156-1.4023-4.5-.39453-2.5703-.84375-5.4844-5.2344-6.4453-1.1055-.24219-1.3633-.55859-1.8281-1.1328-.50391-.61719-1.1914-1.4648-2.7656-2.0312-.67969-.24609-1.3867-.36719-2.0977-.36719-1.957 0-3.6523.90234-5.2969 1.7734-1.5117.80469-2.9375 1.5625-4.4297 1.5625-1.0352 0-2.0703-.375-3.1602-1.1406-.1875-.13281-.34766-.33203-.56641-.60938-.45703-.57812-1.0859-1.3672-2.4023-1.957-.51953-.23438-.64453-.60938-.79297-1.4102-.050781-.26172-.097656-.49219-.15625-.66797-.48828-1.4961-1.4688-2.4414-2.332-3.2734-.64062-.61719-1.1953-1.1484-1.4727-1.8203-.40234-.97656-.23047-1.2656.33984-2.2227.71094-1.1875 1.6797-2.8203 1.293-5.9648-.32031-2.5898.3125-3.3672 1.2656-4.543.46094-.57031.98438-1.2148 1.418-2.0898 1.4609-2.9531 2.6016-3.5273 4.6602-4.3711 2.8203-1.1523 3.3867-2.9492 3.8438-4.3945.29688-.94141.53125-1.6875 1.3555-2.4414 1.5742-1.4453 2.6094-1.5664 3.5352-1.5664.46484 0 .94141.039062 1.4492.082031.63672.050781 1.3555.10938 2.1602.10938 1.2188 0 2.3984-.13672 3.6055-.42188 1.6211-.38281 2.6914-.38672 3.9531-.03125 1.1367.32031 2.3984.26172 3.3008.14453.26562-.03125.51172-.070312.75-.070312s.33203.042969.45312.13672c.17969.14062.23828.33984.36328 1.0078.20313 1.1172.54688 2.9844 3.1992 3.9883 1.5898.60156 2.5391 1.2578 4.1836 2.5078.63281.48438 1.2539.71875 1.9023.71875 1.0312 0 1.7422-.58594 2.3672-1.1016.75391-.62109 1.4648-1.207 2.9648-1.207.83984 0 1.8438.19141 2.9805.57031 1.0859.35938 1.9648.52734 2.7656.52734 1.1094 0 1.8867-.33203 2.5039-.65625 1.2031-.63672 1.8555-.76953 2.1914-.76953.21094 0 .39453.027344.70703.37891.51953.57813.71094.79688.53516 2.2578-.27344 2.2656-.16797 4.7773 2.4414 7.7695.25391.29297.49609.52734.72656.74609.57422.55078.83594.80078 1.0469 2.1641.24609 1.5898 1.0312 2.3711 1.6602 3.0039.60156.60156 1.1172 1.1172 1.4336 2.6523.35547 1.7305 1.9297 2.5508 3.0781 3.1484.36328.1875.77344.40234.94922.55469.76562.66406 1.0938 1.4219 1.4062 2.1562.44141 1.0234 1.1094 2.5742 3.1328 2.5742.1875 0 .39062-.015625.60938-.046875 1.3789-.19531 2.6797-.76953 4.1094-1.4375 1.7227-.80469 2.1445-.55078 2.0586-.49219.03125.48047-.69922 2.1211-1.2305 3.3203-.31641.71094-.65234 1.4727-.98047 2.2695-.93359 2.2852-2.168 3.3047-3.7305 4.5977-1.082.89453-2.3086 1.9102-3.5352 3.4531-.96875 1.2148-4.1953 5.8164-4.4805 6.2305-1.8242 2.6562-1.0508 4.2148-.29688 5.7188.39844.80078.85156 1.707 1.0977 3.1016l.089843.49219c.52344 2.8555.89844 4.9141-2.5039 6.9648z"/></svg>