<svg height="100pt" viewBox="0 0 100 100" width="100pt" xmlns="http://www.w3.org/2000/svg"><path d="m51.703 4.7031c-.84766-.007813-1.5508.66406-1.5781 1.5117-.46094 14.059-2.7148 27.582-8.3203 40.227-5.2422-3.7188-9.75-10.824-13.965-18.949-.26172-.51172-.78125-.83984-1.3555-.85156s-1.1094.28906-1.3945.78906c0 0-2.707 4.8359-5.3398 11.297-2.6289 6.4609-5.2461 14.543-4.9375 21.457.86328 19.316 15.773 35.125 35.195 35.125 19.418 0 34.957-15.781 35.195-35.176.39453-32.336-32.625-55.168-32.625-55.168l.003906.003906c-.25781-.17969-.5625-.27734-.87891-.28125zm1.418 4.6367c7.2422 5.8086 29.27 25.551 28.961 50.773-.21875 17.754-14.34 32.09-32.07 32.09s-31.277-14.344-32.07-32.141c-.26562-5.9883 2.1562-13.867 4.7109-20.141 1.4258-3.5 2.8164-6.3867 3.8164-8.3594 4.2891 7.9453 8.9844 14.938 15.242 18.523h-.007813c.37891.21875.83203.26562 1.2461.13672.41797-.13281.76172-.43359.94531-.82812 5.9492-12.684 8.5078-26.176 9.2227-40.055z"/></svg>