<svg height="100pt" viewBox="0 0 100 100" width="100pt" xmlns="http://www.w3.org/2000/svg"><path d="m15.352 4.6875c-.79687.082031-1.4062.75781-1.4062 1.5586v78.961c-.007812.14453-.023437.28516-.023437.42969 0 5.332 4.3359 9.6758 9.6641 9.6758h60.902c.85156-.019531 1.5273-.71094 1.5273-1.5625 0-.84766-.67578-1.543-1.5273-1.5625h-60.902c-3.6055 0-6.4492-2.8281-6.5234-6.4102.003906-.046875.007812-.09375.007812-.14062v-.21484c.11328-3.5469 2.9414-6.3242 6.5195-6.3242h60.898c.45312 0 .88281-.19922 1.1797-.53906.29688-.34375.42969-.79688.36719-1.2461.027344-.11719.042969-.23828.042969-.36328v-70.703c0-.41406-.16797-.8125-.46094-1.1016-.29688-.29297-.69531-.45703-1.1094-.45703h-69.008-.14844zm1.7188 3.1289h65.887v68.156h-59.367c-2.5117 0-4.7969.97266-6.5195 2.5469zm32.945 13.297c-11.23 0-20.371 9.1406-20.371 20.371s9.1406 20.371 20.371 20.371 20.367-9.1406 20.367-20.371-9.1367-20.371-20.367-20.371zm0 3.1289c1.4844 0 2.918.20312 4.2891.55469v15.129h-8.5938v-15.129c1.375-.35156 2.8125-.55859 4.3047-.55859zm7.4141 1.6836c5.3672 2.5586 9.1953 7.793 9.7461 14h-9.7461zm-14.844.007813v13.996h-9.7383c.55469-6.2031 4.375-11.438 9.7383-13.996zm-9.7383 17.121h9.7383v13.984c-5.3594-2.5586-9.1836-7.7852-9.7383-13.984zm12.863 0h8.5938v15.117c-1.375.35156-2.8047.55859-4.2891.55859-1.4883 0-2.9258-.20703-4.3047-.5625zm11.719 0h9.7461c-.55859 6.2031-4.3828 11.434-9.7461 13.988z"/></svg>