<svg clip-rule="evenodd" fill-rule="evenodd" stroke-linejoin="round" stroke-miterlimit="2" viewBox="0 0 100 100" xmlns="http://www.w3.org/2000/svg"><path d="m57.926 55.098 10.488 10.488-2.828 2.828-10.488-10.488c-2.524 1.93-5.676 3.074-9.098 3.074-8.285 0-15-6.714-15-15 0-8.285 6.715-15 15-15s15 6.715 15 15c0 3.422-1.144 6.575-3.074 9.098zm-11.926 1.902c6.074 0 11-4.926 11-11s-4.926-11-11-11-11 4.926-11 11 4.926 11 11 11z" fill-rule="nonzero" transform="matrix(2.64992 0 0 2.64992 -82.0129 -82.013)"/></svg>