<svg xmlns="http://www.w3.org/2000/svg" width="18.97" height="15.494" viewBox="0 0 18.97 15.494"><path d="M-638.845-1219.829c.55-.474,1.029-1.029,1.539-1.548-.021-.018-.039-.037-.061-.055l-2.03.555-.041-.08a4.006,4.006,0,0,0,1.579-1.987c-.687.248-1.361.488-2.032.736a.576.576,0,0,1-.651-.149,3.9,3.9,0,0,0-5.5.3,3.9,3.9,0,0,0-.95,3.206,2.124,2.124,0,0,1,0,.305,11.252,11.252,0,0,1-8.028-4.072,3.886,3.886,0,0,0-.414,2.824,4.015,4.015,0,0,0,1.56,2.338c-.018.031-.039.061-.061.094l-1.616-.448c-.132,1.558.9,2.869,3.076,3.824-.332.045-.591.1-.854.109s-.55-.021-.83-.035c.346,1.383,1.509,2.27,3.571,2.709a7.983,7.983,0,0,1-5.686,1.614c.179.113.268.179.366.233a10.917,10.917,0,0,0,4.927,1.465,10.628,10.628,0,0,0,6.04-1.323,11.1,11.1,0,0,0,5.709-9.765A1.033,1.033,0,0,1-638.845-1219.829Z" transform="translate(656.276 1223.353)" /></svg>