<?xml version="1.0" standalone="no"?>
<!DOCTYPE svg PUBLIC "-//W3C//DTD SVG 20010904//EN"
 "http://www.w3.org/TR/2001/REC-SVG-20010904/DTD/svg10.dtd">
<svg version="1.0" xmlns="http://www.w3.org/2000/svg"
 width="700.000000pt" height="700.000000pt" viewBox="0 0 700.000000 700.000000"
 preserveAspectRatio="xMidYMid meet">
<metadata>
Created by potrace 1.14, written by Peter Selinger 2001-2017
</metadata>
<g transform="translate(0.000000,700.000000) scale(0.100000,-0.100000)"
fill="#000000" stroke="none">
<path d="M3388 6470 c-277 -29 -535 -122 -732 -262 -47 -33 -128 -104 -180
-158 -278 -287 -403 -659 -375 -1113 30 -464 244 -842 683 -1201 139 -114 249
-194 551 -401 143 -98 305 -212 360 -253 526 -396 749 -750 771 -1227 13 -264
-51 -518 -176 -700 -221 -321 -643 -482 -1100 -420 -566 76 -949 384 -1026
827 -13 72 -15 124 -10 226 7 126 6 133 -11 130 -27 -5 -79 -170 -98 -312 -20
-153 -19 -212 6 -459 12 -130 19 -257 17 -341 l-3 -134 160 -4 c144 -5 188
-11 435 -61 393 -80 574 -98 810 -78 437 37 776 186 1051 460 173 173 282 349
359 579 106 315 117 695 30 1027 -72 275 -230 536 -470 775 -180 180 -290 265
-865 665 -310 215 -493 366 -621 513 -246 279 -354 569 -341 907 7 163 33 270
94 395 40 80 62 110 138 186 185 185 423 274 733 274 565 0 958 -296 1084
-817 20 -85 24 -93 46 -93 l23 0 -7 233 c-6 210 8 645 22 703 5 20 2 20 -85
16 -109 -5 -216 7 -466 52 -105 19 -240 41 -300 50 -141 19 -395 27 -507 16z"/>
</g>
</svg>
