<svg xmlns="http://www.w3.org/2000/svg" viewBox="0 0 574.8 121.61"><g id="Layer_2" data-name="Layer 2"><g id="Layer_1-2" data-name="Layer 1"><path d="M42,89.46q-4.2-4.75-13.8-8.95l-4.6-2a23.64,23.64,0,0,1-7.9-5.45A11.86,11.86,0,0,1,13,64.91,9.82,9.82,0,0,1,16.5,57a12.87,12.87,0,0,1,8.6-3,21.5,21.5,0,0,1,2.8.15,15,15,0,0,1,2.4.55,10,10,0,0,1,3.9,2,15.38,15.38,0,0,1,3.4,5l4.1,7.5h1l.6-12a29,29,0,0,0-8.25-3.8A35.17,35.17,0,0,0,25,52a32.47,32.47,0,0,0-12.75,2.3,19.24,19.24,0,0,0-8.5,6.6,17.1,17.1,0,0,0-3,10.2q0,8.19,4.85,13.15A42.9,42.9,0,0,0,19,93l4.1,1.8a24.46,24.46,0,0,1,7.7,5.35q2.4,2.75,2.4,7.65a11.12,11.12,0,0,1-3.55,8.5q-3.55,3.3-9.65,3.3a22.64,22.64,0,0,1-4.15-.35A15.18,15.18,0,0,1,12,117.91a10.45,10.45,0,0,1-4.4-3.35,33.12,33.12,0,0,1-3-5l-3.1-6.5H.5L0,116.71a35.37,35.37,0,0,0,9.5,3.55,48.47,48.47,0,0,0,11.2,1.35q12.19,0,18.85-5.55a17.85,17.85,0,0,0,6.65-14.35Q46.2,94.21,42,89.46Z"></path><path d="M113,53.81v1l1.4.5a2.44,2.44,0,0,1,2.15,2.2,6.11,6.11,0,0,1-.65,3.3L102.7,88,90.9,61.81A7.49,7.49,0,0,1,90.1,58c.13-1,.93-1.85,2.4-2.45l1.8-.7v-1H67.5v1l1.8.9a5.71,5.71,0,0,1,2.25,1.7,16,16,0,0,1,1.65,3L89.7,94v19q0,4-3.5,5l-3,.8v1h28.1v-1l-3.1-.8a4.16,4.16,0,0,1-2.65-1.75,6.28,6.28,0,0,1-.75-3.25V89.41l13.7-28.8a20,20,0,0,1,1.8-3.15,5.69,5.69,0,0,1,2.8-2l1.9-.7v-1Z"></path><path d="M198.2,90.36q-5.1-4.56-16.1-5.75,9.6-1.71,13.55-5.85a13.13,13.13,0,0,0,3.95-9.25,14,14,0,0,0-5.4-11.25q-5.4-4.45-17.6-4.45H147.9v1l1.8.7a5,5,0,0,1,2.75,1.9,6.2,6.2,0,0,1,.75,3.3v52.2a6,6,0,0,1-.75,3.2,5.58,5.58,0,0,1-2.75,2l-1.8.7v1h25.4a54.86,54.86,0,0,0,14.7-1.65,25.83,25.83,0,0,0,9.15-4.35,15.86,15.86,0,0,0,4.75-6,16.29,16.29,0,0,0,1.4-6.45A14.26,14.26,0,0,0,198.2,90.36ZM168,55.81h5.4q6.09,0,8.8,3.4t2.7,11.4q0,7.69-3,10.8t-9.65,3.1H168Zm16.15,58q-3.66,4-11.15,4h-5V86.51h4.8q8,0,11.5,3.4t3.5,11.4Q187.8,109.8,184.15,113.81Z"></path><path d="M284.4,118.41a7.73,7.73,0,0,1-3.1-2,10.68,10.68,0,0,1-1.8-3.35l-20.3-59.5h-8.5l-20.6,59.1a8.67,8.67,0,0,1-1.8,3.25,9,9,0,0,1-3.1,2l-2.5.9v1h13.8v-1l-2.2-.9c-1.4-.54-2.19-1.24-2.35-2.1a7.38,7.38,0,0,1,.45-3.5l16.3-47.2,15.4,47.5a5.9,5.9,0,0,1,.15,3.45,3.84,3.84,0,0,1-2.55,2.25l-1.5.5v1h25.4v-1Z"></path><path d="M367,118.41a10.59,10.59,0,0,1-3.05-1.85,10,10,0,0,1-2.05-2.75L348,86.21q7.1-2.4,10.4-6.8a14.65,14.65,0,0,0,3.3-8.8,14.27,14.27,0,0,0-6.3-12.35q-6.3-4.45-18.1-4.45H308.7v1l2.3.9a4.09,4.09,0,0,1,2.45,1.85,7.48,7.48,0,0,1,.55,3.15V113a7.16,7.16,0,0,1-.6,3.25,4.44,4.44,0,0,1-2.6,1.85l-2.1.7v1h25.6v-1l-2.4-.9a3.91,3.91,0,0,1-2.5-1.8,7,7,0,0,1-.6-3.1V88.31h6.8l14.8,31.5h17.9v-.9ZM344,82.46q-3.21,3.84-10.4,3.85h-4.8V55.81h5.3q7.09,0,10.1,3.75t3,11.45Q347.2,78.6,344,82.46Z"></path><path d="M412.55,57.51a4.48,4.48,0,0,1,2.65-1.9l2-.8v-1H391.5v1l2,.8a4.34,4.34,0,0,1,2.7,1.9,7.19,7.19,0,0,1,.6,3.2v52.2a6.78,6.78,0,0,1-.65,3.2,4.59,4.59,0,0,1-2.65,1.9l-2,.8v1h25.7v-1l-2-.8a5.08,5.08,0,0,1-2.65-2,6.37,6.37,0,0,1-.65-3.15V60.71A6.63,6.63,0,0,1,412.55,57.51Z"></path><path d="M499.6,53.81H441.9l-.5,16.3h1l3.6-7a32.34,32.34,0,0,1,3.4-5.35q1.59-1.95,5.3-1.95h8.5v57a4.67,4.67,0,0,1-4.1,5l-4.1,1v1h31.5v-1l-4.1-1c-2.74-.6-4.1-2.27-4.1-5v-57h8.5q3.69,0,5.3,1.95a29.62,29.62,0,0,1,3.3,5.35l3.6,7h1Z"></path><path d="M573.8,104.41l-4.1,9.4a7.8,7.8,0,0,1-1.8,3,4.33,4.33,0,0,1-3.1,1H544.6V86.71h10.7a4,4,0,0,1,3,1.05,11.93,11.93,0,0,1,1.9,2.85l2,4.2h1v-18h-1l-2,4a9.49,9.49,0,0,1-1.85,2.85,4.14,4.14,0,0,1-3.05,1H544.6V55.81h18a3.84,3.84,0,0,1,3,1.1,13,13,0,0,1,1.9,2.9l4.3,9.4h1l-.6-15.4H524.3v1l2.3.9a4.09,4.09,0,0,1,2.45,1.85,7.48,7.48,0,0,1,.55,3.15v52.2a6.48,6.48,0,0,1-.65,3.15,4.64,4.64,0,0,1-2.35,1.85l-2.3.9v1h49.9l.6-15.4Z"></path><path d="M264.2,0V4h-8.4V28h-4.39V4H243V0Z"></path><path d="M298.81,28h-4.4V15.8H280.6V28h-4.39V0h4.39V11.82h13.81V0h4.4Z"></path><path d="M331.79,24v4h-20.2V0H331.4V4H316v7.41h12.2v4H316V24Z"></path></g></g></svg>